<?xml version="1.0" encoding="UTF-8"?>
<svg width="25px" height="25px" viewBox="0 0 25 25" version="1.1" xmlns="http://www.w3.org/2000/svg" xmlns:xlink="http://www.w3.org/1999/xlink">
    <title>f_logo_RGB-Black_1024</title>
    <defs>
        <polygon id="path-1" points="0 0 25 0 25 25 0 25"></polygon>
    </defs>
    <g id="Page-1" stroke="none" stroke-width="1" fill="none" fill-rule="evenodd">
        <g id="iMac-21.5&quot;" transform="translate(-1562.000000, -34.000000)">
            <g id="f_logo_RGB-Black_1024" transform="translate(1562.000000, 34.000000)">
                <g id="Group-3">
                    <mask id="mask-2" fill="white">
                        <use xlink:href="#path-1"></use>
                    </mask>
                    <g id="Clip-2"></g>
                    <path d="M25,12.5759035 C25,5.629876 19.4032365,-0.000982569222 12.4992675,-0.000982569222 C5.59529855,-0.000982569222 -0.00146492959,5.629876 -0.00146492959,12.5759035 C-0.00146492959,18.8533908 4.56987226,24.0564879 10.5460281,25 L10.5460281,16.2114096 L7.37201399,16.2114096 L7.37201399,12.5759035 L10.5460281,12.5759035 L10.5460281,9.80505827 C10.5460281,6.6529762 12.4122995,4.91186354 15.2677403,4.91186354 C16.635423,4.91186354 18.066,5.15750585 18.066,5.15750585 L18.066,8.2525989 L16.4896869,8.2525989 C14.9367883,8.2525989 14.452507,9.22207538 14.452507,10.2166811 L14.452507,12.5759035 L17.919507,12.5759035 L17.3652753,16.2114096 L14.452507,16.2114096 L14.452507,25 C20.4286628,24.0564879 25,18.8533908 25,12.5759035" id="Fill-1" fill="#0A0B09" mask="url(#mask-2)"></path>
                </g>
                <path d="M17.2792237,16.1650485 L17.8493151,12.5728155 L14.283105,12.5728155 L14.283105,10.2416748 C14.283105,9.25890777 14.7812443,8.30097087 16.3785799,8.30097087 L18,8.30097087 L18,5.24271845 C18,5.24271845 16.5284863,5 15.1216667,5 C12.184516,5 10.2648402,6.72038835 10.2648402,9.83495146 L10.2648402,12.5728155 L7,12.5728155 L7,16.1650485 L10.2648402,16.1650485 L10.2648402,24.8490291 C10.9194909,24.948301 11.5904658,25 12.2739726,25 C12.9574795,25 13.6284543,24.948301 14.283105,24.8490291 L14.283105,16.1650485 L17.2792237,16.1650485" id="Fill-4" fill="#FFFFFE"></path>
            </g>
        </g>
    </g>
</svg>