<?xml version="1.0" encoding="UTF-8"?>
<svg width="25px" height="25px" viewBox="0 0 25 25" version="1.1" xmlns="http://www.w3.org/2000/svg" xmlns:xlink="http://www.w3.org/1999/xlink">
    <title>f_logo_RGB-Black_1024</title>
    <defs>
        <polygon id="path-1" points="0 0 25 0 25 25 0 25"></polygon>
    </defs>
    <g id="Page-1" stroke="none" stroke-width="1" fill="none" fill-rule="evenodd">
        <g id="iMac-21.5&quot;" transform="translate(-332.000000, -5285.000000)">
            <g id="Group-3" transform="translate(332.000000, 5285.000000)">
                <mask id="mask-2" fill="white">
                    <use xlink:href="#path-1"></use>
                </mask>
                <g id="Clip-2"></g>
                <path d="M25,12.5759035 C25,5.629876 19.4032365,-0.000982569222 12.4992675,-0.000982569222 C5.59529855,-0.000982569222 -0.00146492959,5.629876 -0.00146492959,12.5759035 C-0.00146492959,18.8533908 4.56987226,24.0564879 10.5460281,25 L10.5460281,16.2114096 L7.37201399,16.2114096 L7.37201399,12.5759035 L10.5460281,12.5759035 L10.5460281,9.80505827 C10.5460281,6.6529762 12.4122995,4.91186354 15.2677403,4.91186354 C16.635423,4.91186354 18.066,5.15750585 18.066,5.15750585 L18.066,8.2525989 L16.4896869,8.2525989 C14.9367883,8.2525989 14.452507,9.22207538 14.452507,10.2166811 L14.452507,12.5759035 L17.919507,12.5759035 L17.3652753,16.2114096 L14.452507,16.2114096 L14.452507,25 C20.4286628,24.0564879 25,18.8533908 25,12.5759035" id="Fill-1" fill="#FFFFFF" mask="url(#mask-2)"></path>
            </g>
        </g>
    </g>
</svg>