<svg xmlns="http://www.w3.org/2000/svg" width="198.361" height="92.71" viewBox="0 0 198.361 92.71">
  <g id="Group_1" data-name="Group 1" transform="translate(-918 -520.141)">
    <g id="Group_1-2" data-name="Group 1" transform="translate(918 520.141)">
      <path id="Path_1" data-name="Path 1" d="M80.271-25.751q3.54.911,2.776,3.655c-.65,2.03-8.568,7.518-14.694,9.791,1.7-6.665,7.956-14.468,11.918-13.446M29.491-6.217q0,5.585,3.9,8.545a13.016,13.016,0,0,0,7.343,2.886c7.3,0,13.167-4.114,17.592-7.973A8.659,8.659,0,0,0,59-.975q3.4,6.528,12.806,6.528c7.906,0,14.123-4.819,18.656-8.917A15.949,15.949,0,0,0,94.41-8.488c.791-1.746.816-4.1.078-4.1q-.711,0-2.054,1.481A32.9,32.9,0,0,1,88.955-7.88q-5.773,4.7-11.937,4.7A9.736,9.736,0,0,1,71.8-4.39,6.187,6.187,0,0,1,69.175-8.6a65.636,65.636,0,0,0,9.37-4.295c8.139-4.7,9.383-8.9,9.383-11.081a6.747,6.747,0,0,0-2.333-5.314,9.752,9.752,0,0,0-6.64-2.049,18.2,18.2,0,0,0-8.1,1.859,21.01,21.01,0,0,0-6.68,5.2,26.156,26.156,0,0,0-4.624,7.931,25.249,25.249,0,0,0-1.721,8.178C54-5.061,50.011-2.982,45.967-3.512A8.032,8.032,0,0,1,43.543-4.3a4.5,4.5,0,0,1-2.577-4.047,25.816,25.816,0,0,1,1.717-9.82,10.9,10.9,0,0,1,2.147-3.448,3.6,3.6,0,0,1,2.693-1.311A3.947,3.947,0,0,1,50.1-21.845,3.954,3.954,0,0,0,52.834-20.8a3.046,3.046,0,0,0,2.3-1.572,7.059,7.059,0,0,0,1.132-4.2q0-4.571-6.012-4.572A16.807,16.807,0,0,0,43-29.3a22.208,22.208,0,0,0-6.832,5.135,25.935,25.935,0,0,0-4.839,7.834A26.722,26.722,0,0,0,29.491-6.217" transform="translate(38.621 51.675)" fill="#55565a"/>
      <path id="Path_2" data-name="Path 2" d="M30.569,16.748q3.122,0,3.123-2.1,0-10.642,4.216-29.158,1.172-4.87,2.11-9.069t1.559-7.458a28.656,28.656,0,0,0,.626-4.911,5.7,5.7,0,0,0-.743-2.923,2.139,2.139,0,0,0-1.834-1.273,5.364,5.364,0,0,0-4.137,1.686,13.519,13.519,0,0,0-2.42,3.56q-3.359,7.2-7.143,22.037T22.061,8.729q0,4.348,1.794,6.184t6.714,1.836" transform="translate(28.891 40.141)" fill="#55565a"/>
      <path id="Path_3" data-name="Path 3" d="M10.229-17.154q.67,1.371,1.3,2.505a19.236,19.236,0,0,0,1.293,2.044,11.113,11.113,0,0,0,1.228,1.443.855.855,0,0,0,1.182.113q2.866-1.938,1.83-3.351A65.508,65.508,0,0,1,12.1-22.933q-1.074-2.174-1.976-4.015T8.55-29.909q3.993-2.485,5.028-3.185a1.506,1.506,0,0,0,.726-1.78,6.411,6.411,0,0,1-.239-1.037,1.694,1.694,0,0,0-.179-.65q-.369-.5-1.042-.048l-8.25,5.475A10.871,10.871,0,0,0,.526-26.057a7.592,7.592,0,0,0-.516,2.192,2.144,2.144,0,0,0,.178,1.259q.194.264.616-.023a4.843,4.843,0,0,0,.94-.9q.517-.619,1.737-2.1A16.783,16.783,0,0,1,6.2-28.284a28.937,28.937,0,0,0,1.524,5.252,62.926,62.926,0,0,0,2.505,5.878" transform="translate(0 44.484)" fill="#55565a"/>
      <path id="Path_4" data-name="Path 4" d="M31.06-29.286c.625.07,2.039.287,1.424,1.624s-4.018,2.136-4.474,2.36c.686-2.3,2-4.1,3.05-3.984M9.007-17.135a4.827,4.827,0,0,0,1.135,2.1,1.272,1.272,0,0,0,1.205.425,2.088,2.088,0,0,0,.9-.514c.233-.232.479-.478.735-.737a2.112,2.112,0,0,0,.374-2.315q-.2-.615-.462-1.242t-.531-1.253a9.738,9.738,0,0,1,.287-4.173Q13.261-27.03,14.5-27.4t1.562.641a5.309,5.309,0,0,1,.24,1.246q.043.631.149,2.007a12.779,12.779,0,0,0,.6,2.916q1.148,3.579,3.48,2.889a.182.182,0,0,0,.125-.006,11.437,11.437,0,0,0,3.2-2.659q1.153,2.1,4.329,2.456a10.411,10.411,0,0,0,7.429-1.56,6.242,6.242,0,0,0,1.751-1.8,4.533,4.533,0,0,0,.673-1.766c.065-.542-.043-.831-.326-.862-.182-.019-.467.141-.856.479a12.668,12.668,0,0,1-1.481,1.089,7.279,7.279,0,0,1-4.789,1.294,4.72,4.72,0,0,1-1.942-.687,1.576,1.576,0,0,1-.73-1.585L28-24.028q1.274-.389,2.582-.671a16,16,0,0,0,2.4-.7,5.393,5.393,0,0,0,1.841-1.15,3.2,3.2,0,0,0,.9-1.978,2.575,2.575,0,0,0-.647-2.134,3.717,3.717,0,0,0-2.448-1.068,7.041,7.041,0,0,0-3.19.367,8.179,8.179,0,0,0-2.8,1.707,10.179,10.179,0,0,0-2.138,2.84,10.888,10.888,0,0,0-.652,1.522l-.788,1.474q-.44.819-.909,1.539a1.883,1.883,0,0,1-.906.851c-.215.063-.369-.055-.465-.352a4.619,4.619,0,0,1-.174-1.189q-.032-.742-.121-2.461a12.868,12.868,0,0,0-.588-3.272,3.2,3.2,0,0,0-1.792-2.1,4.833,4.833,0,0,0-3.274.034,5.193,5.193,0,0,0-1.471.682,5.58,5.58,0,0,0-2.279,3.338L10.875-28.9q.166-.877.377-1.658t.344-1.511a8.558,8.558,0,0,0,.141-1.451,4.794,4.794,0,0,0-.2-1.426A4.322,4.322,0,0,0,10.5-36.535,1.622,1.622,0,0,0,8.878-37.2a1.28,1.28,0,0,0-.957,1.094,39.677,39.677,0,0,0-.628,11.456,38.5,38.5,0,0,0,1.713,7.517" transform="translate(9.321 43.933)" fill="#55565a"/>
      <path id="Path_5" data-name="Path 5" d="M175.364,32.323a3.531,3.531,0,0,1-1.872-.5,1.547,1.547,0,0,1-.969-1.324q-.045-.619,1.679-.867.86-.123,2.066-.269c.8-.1,1.723-.242,2.754-.433q-1.635,3.389-3.658,3.389m-1.127-20.64a2.814,2.814,0,0,1,.808-1.545c.3-.027.512.081.549.2.088.315,0,1.676-1.414,3.233a5.286,5.286,0,0,1-.492.4,17.385,17.385,0,0,1,.549-2.3M88.863,17.4a5.184,5.184,0,0,1-4.345,2.684q-2.456,0-2.456-3.183a8.934,8.934,0,0,1,2.456-6.585c1.72-1.7,4.317-3.628,5.746-1.123.04,1.874.148,5.417-1.4,8.207M69.757,7.381q1.927.5,1.511,1.992c-.354,1.1-4.234,3.579-7.634,4.027.928-3.629,3.965-6.574,6.123-6.018m73.65.639q1.334,0,1.334,1.033a2.689,2.689,0,0,1-1.334,2.068q-.6.412-1.4.866t-1.7,1.034q.862-5,3.1-5m50.812,6.531q-.389,0-1.034.723t-1.592,1.8a39.788,39.788,0,0,1-5.553,5.167q3.658-11.7,3.746-14.59a5.067,5.067,0,0,0-1.077-2.46,3.062,3.062,0,0,0-2.282-1.632,1.687,1.687,0,0,0-1.636,1.034q-.256.578-1.226,3.554t-2.087,7.563a10.3,10.3,0,0,1-1.464,2.769,3.158,3.158,0,0,1-2.669,1.116c-1.205,0-2.572-.135-3-1.339a17.851,17.851,0,0,1-.6-1.792c.04-.011.077-.018.115-.029a9.422,9.422,0,0,0,1.884-.758,5.759,5.759,0,0,0,1.793-1.528,4.6,4.6,0,0,0,.636-1.16s.313-.833.364-1a6.171,6.171,0,0,0,.387-2.174,3.912,3.912,0,0,0-.9-2.381,3.753,3.753,0,0,0-1.127-.906,3.391,3.391,0,0,0-1.286-.381,3.429,3.429,0,0,0-1.9.371,3.533,3.533,0,0,0-.858.623s-.006,0-.009.008c-1.468,1.339-2.478,4.655-3.084,7.464-.262-.021-.532-.052-.824-.09l-.176-.03-.21-.038c-.094-.019-.189-.038-.28-.06-.525-.182-.185-1.408-.037-1.994.014-.085.612-2.15.838-3.1q-1.242-3.51-2.5-3.509a2.146,2.146,0,0,0-.9.246l-1.12.534a6.777,6.777,0,0,1-2.885.787,4.682,4.682,0,0,1-1.5-.2,7.24,7.24,0,0,0-1.248-2.6,3.475,3.475,0,0,0-2.8-1.615q-3.1,0-3.1,2.77,0,1.321,1.978,3.144a18.075,18.075,0,0,0-1.588,4.1c-.007.023-.017.04-.026.066a8.551,8.551,0,0,1-2.736,4.094,10.189,10.189,0,0,1-6.5,2.563,6.708,6.708,0,0,1-2.841-.661,2.247,2.247,0,0,1-1.293-2.109V15.873q1.722-.744,3.508-1.343a22.377,22.377,0,0,0,3.251-1.364,7.493,7.493,0,0,0,2.389-1.9,4.461,4.461,0,0,0,.926-2.914,3.672,3.672,0,0,0-1.27-2.893,5.309,5.309,0,0,0-3.615-1.116,9.9,9.9,0,0,0-4.413,1.012,11.423,11.423,0,0,0-3.638,2.832,14.258,14.258,0,0,0-2.518,4.319,13.574,13.574,0,0,0-.948,4.815c0,.036,0,.07,0,.105a6.8,6.8,0,0,1-4.09,2.554c-3.248.534.919-6.522,1.076-10.141a3.628,3.628,0,0,0-1.207-2.851,4.9,4.9,0,0,0-3.53-1.158,8.07,8.07,0,0,0-6.415,3.142V8.516a3.643,3.643,0,0,0-1.462-2.954,5.151,5.151,0,0,0-3.315-1.179,6.168,6.168,0,0,0-4.864,2.48,6.015,6.015,0,0,0-.516-1.075q-1.208-2.231-2.626-2.232a2.124,2.124,0,0,0-1.68,1.158,18.553,18.553,0,0,0-2.925,7.272,24.532,24.532,0,0,0-.294,2.464,4.678,4.678,0,0,1-1.416,3.274c-1.648,1.34-2.88,1.934-4.315,1.866-1.555-.146-2.951-2.5-.819-8.8a20.231,20.231,0,0,0,1.3-3.93c.134-1.9-2.747-2.968-3.753-2.968-.518,0-1.208,1.255-1.608,2.055a3.789,3.789,0,0,0-3-1.519,13.1,13.1,0,0,0-3.763.534A11.529,11.529,0,0,0,80.6,7.195a13.138,13.138,0,0,0-4.706,8.666c-.4.395-.865.811-1.4,1.252a10.193,10.193,0,0,1-6.5,2.563,5.3,5.3,0,0,1-2.841-.661c-1.3-.88-1.609-3.543-1.609-3.543a63.721,63.721,0,0,0,7.077-2.306,7.53,7.53,0,0,0,2.39-1.9,4.468,4.468,0,0,0,.925-2.914,3.676,3.676,0,0,0-1.269-2.893A5.317,5.317,0,0,0,69.04,4.341a9.9,9.9,0,0,0-4.413,1.012,11.439,11.439,0,0,0-3.638,2.832A14.287,14.287,0,0,0,58.471,12.5a16.025,16.025,0,0,0-.545,1.729,5.256,5.256,0,0,1-1.532.079c-.26-.09-.174-1.31-.023-1.914h.006c.023-.073.043-.148.063-.221.017-.036.034-.075.054-.118l-.017,0c.262-.889.511-1.8.74-2.756q-1.248-3.512-2.5-3.513a2.155,2.155,0,0,0-.9.247L52.7,6.573a6.844,6.844,0,0,1-2.884.785,4.652,4.652,0,0,1-1.507-.208,7.186,7.186,0,0,0-1.249-2.6,3.463,3.463,0,0,0-2.8-1.612q-3.1,0-3.1,2.769a2.714,2.714,0,0,0,.462,1.389h0c.787,1.639.1,2.987-.923,4.275a16.519,16.519,0,0,1-3.44,3.269,21.088,21.088,0,0,1-12.372,4.076q-10.687,0-10.687-12.862a33.6,33.6,0,0,1,5.2-17.782,52.688,52.688,0,0,1,3.514-4.357c2.683-2.576,5.891-4.658,9.162-4.658,2.39,0,6.968.638,7.242,3.265.24,2.306-3.2,2.459-3.52,4.61s2.88,1.844,5.12.307c2.319-1.59,3.12-3.171,3.12-5.654a7.253,7.253,0,0,0-1.36-4.2c-2.02-2.785-5.283-4.5-10.87-4.5a24.179,24.179,0,0,0-15.63,5.9,55.042,55.042,0,0,0-8.2,9.84A40.14,40.14,0,0,0,2.7,8.521q0,8.505,5.49,13.283a18.672,18.672,0,0,0,15.445,4.779C35.1,24.781,41.19,14.073,42.081,13.147a43.384,43.384,0,0,0-1.181,7.48,8.522,8.522,0,0,0,.408,3.14A1.491,1.491,0,0,0,42.8,24.842a4.871,4.871,0,0,0,2.926-.785A2.215,2.215,0,0,0,46.8,22.279l-.259-5.042a12.522,12.522,0,0,1,.388-2.956q.386-1.59.774-3.161a12.219,12.219,0,0,0,1.7.082,5.846,5.846,0,0,0,2.023-.336,6.787,6.787,0,0,0-.3,3.65,3.184,3.184,0,0,0,2.241,2.418,9.712,9.712,0,0,0,4.174-.187c-.01.191-.014.382-.014.572a7.846,7.846,0,0,0,.646,3.554q1.848,3.555,6.973,3.556c4.307,0,7.693-2.626,10.16-4.856.171-.154.322-.311.475-.466a5.753,5.753,0,0,0,1.765,3.586,6.668,6.668,0,0,0,4.883,1.818,9.016,9.016,0,0,0,4.843-1.136A9.218,9.218,0,0,0,90.2,20.463a4.57,4.57,0,0,0,6.5,3.058,12.412,12.412,0,0,0,3.205-2.008,12.108,12.108,0,0,0,.992-.933s.01,0,.014-.014c.246-.2.492-.419.74-.639,0,.179,0,.35,0,.534,0,1.488.807,3.994,1.9,4.381,2.191.781,4.648-2.039,4.648-2.977a8.558,8.558,0,0,0-.451-2.065,11.117,11.117,0,0,1-.452-3.246,8.772,8.772,0,0,1,.985-5.029,5.143,5.143,0,0,1,3.88-2.72c.889,0,1.336.469,1.336,1.406,0,.441-.039,1.012-.108,1.714s-.144,1.516-.216,2.44-.142,1.929-.215,3.016-.107,2.247-.107,3.472a8.362,8.362,0,0,0,.408,2.914,1.487,1.487,0,0,0,1.485,1.075c4.22-.018,4.745-1.141,4.648-2.977-.087-1.7-1.333-4.127-1.083-5.842.764-5.262,3.911-5.771,4.657-5.771q1.637,0,1.636,1.363a20.381,20.381,0,0,1-.474,3.515,20.671,20.671,0,0,0-.474,3.76q0,5.415,3.1,5.415a8.692,8.692,0,0,0,1.016-.067l0,.005c.034-.005.067-.015.1-.022a8.842,8.842,0,0,0,3.069-1.008,10.9,10.9,0,0,0,3.3-2.522c.028.061.055.124.084.182q1.852,3.555,6.975,3.556c4.3,0,7.69-2.626,10.158-4.856a10.6,10.6,0,0,0,1.337-1.446c-.03.776-.046,1.6-.046,2.5a9.319,9.319,0,0,0,.41,3.144,1.491,1.491,0,0,0,1.485,1.071,4.9,4.9,0,0,0,2.928-.781,2.223,2.223,0,0,0,1.076-1.781l-.258-5.042a12.655,12.655,0,0,1,.386-2.956q.39-1.59.775-3.158a12.741,12.741,0,0,0,1.7.081,5.8,5.8,0,0,0,2.023-.332,6.738,6.738,0,0,0-.3,3.647,3.2,3.2,0,0,0,2.243,2.419,4.756,4.756,0,0,0,.583.127l.157.014a14.7,14.7,0,0,0,3.329.027,20,20,0,0,0-.249,1.99,4.188,4.188,0,0,0,1.743,3.74,8.221,8.221,0,0,0,4.672,1.179,6.862,6.862,0,0,0,5.768-2.852q-.215,1.076-.818,3.556-2.452.576-4.605.971a30.189,30.189,0,0,0-3.769.909,7.387,7.387,0,0,0-2.54,1.3,2.624,2.624,0,0,0-.925,2.108,4.8,4.8,0,0,0,2,3.927,7.611,7.611,0,0,0,4.843,1.571q4.219,0,6.286-2.4a9.506,9.506,0,0,0,1.549-2.6q.6-1.488,1.118-3.14a21.027,21.027,0,0,0,7.427-5.415q3.037-3.473,3.036-6.076,0-1.322-.6-1.322" transform="translate(3.538 57.204)" fill="#55565a"/>
    </g>
  </g>
</svg>
